<svg width="343" height="49" viewBox="0 0 343 49" fill="none" xmlns="http://www.w3.org/2000/svg">
<path fill-rule="evenodd" clip-rule="evenodd" d="M0 29.8279C0 37.88 4.50021 46 14.5776 46C24.646 46 29.1551 37.88 29.1551 29.8279C29.1551 24.3279 27.306 17.9943 24.2196 12.8785C21.218 7.9384 17.6117 5 14.5776 5C11.5349 5 7.92692 7.9384 4.95148 12.8785C1.85048 17.9943 0 24.3279 0 29.8279Z" fill="#E30611"/>
<path fill-rule="evenodd" clip-rule="evenodd" d="M103.495 17.0809H93.291V7.19727H124.633V17.0809H114.429V43.8042H103.495V17.0809Z" fill="#E30611"/>
<path fill-rule="evenodd" clip-rule="evenodd" d="M147.96 17.0814H163.996V7.19727H147.962C133.227 7.19727 125.361 14.5553 125.361 25.501C125.361 36.4466 133.227 43.8046 147.962 43.8046H163.996V33.9205H147.96C141.143 33.9205 136.659 31.4725 136.659 25.501C136.659 19.5295 141.143 17.0814 147.96 17.0814Z" fill="#E30611"/>
<path fill-rule="evenodd" clip-rule="evenodd" d="M65.2317 29.0477L71.0603 7.19727H90.3805V43.8046H79.4469V14.0095L71.4994 43.8046H58.9636L51.0212 14.0285L51.0207 43.8046H40.0879V7.19727H59.4026L65.2317 29.0477Z" fill="#E30611"/>
<path d="M168.096 22.36H173.664V19H182.808V22.36H188.376V14.752H186.192V6.544H170.592V10.72C170.592 12.712 170.352 14.056 169.896 14.752H168.096V22.36ZM180.504 10.792V14.752H175.08C175.344 14.08 175.656 12.832 175.656 10.96V10.792H180.504ZM198.203 19.384C204.107 19.384 207.155 18.28 207.155 12.76C207.155 7.336 204.107 6.16 198.203 6.16C192.299 6.16 189.251 7.336 189.251 12.76C189.251 18.28 192.299 19.384 198.203 19.384ZM198.203 15.52C196.187 15.52 195.179 15.256 195.179 13.672V11.896C195.179 10.144 196.187 10.024 198.203 10.024C200.243 10.024 201.227 10.144 201.227 11.896V13.648C201.227 15.256 200.243 15.52 198.203 15.52ZM217.376 6.544H208.856V19H213.968V10.648L216.752 18.088H221.84L224.624 10.768V19H230.408V6.544H222.08L219.704 12.784L217.376 6.544ZM232.026 15.352C232.026 17.968 233.754 19.384 236.994 19.384C240.474 19.384 242.226 18.52 243.138 17.2V19H248.802V10.912C248.802 7.6 246.162 6.16 240.93 6.16C235.554 6.16 233.01 7.624 232.626 10.528H238.602C238.794 10.048 239.274 9.784 240.93 9.784C242.346 9.784 242.97 9.904 242.97 10.936V11.176L237.69 11.32C233.802 11.44 232.026 12.88 232.026 15.352ZM239.73 15.664C238.314 15.664 237.882 15.496 237.882 14.848V14.752C237.882 14.248 238.29 14.104 239.082 14.08L242.97 13.984V14.008C242.97 15.088 241.842 15.664 239.73 15.664ZM275.199 6.544H269.391V14.752H265.887V6.544H260.079V14.752H256.575V6.544H250.767V19H275.199V6.544ZM294.053 19V6.544H288.245V10.72H283.109V6.544H277.301V19H283.109V14.968H288.245V19H294.053ZM313.234 19V6.544H306.874L301.978 13.168V6.544H296.17V19H302.53L307.426 12.376V19H313.234ZM332.408 19V6.544H326.048L321.152 13.168V6.544H315.344V19H321.704L326.6 12.376V19H332.408ZM325.184 0.688C325.184 2.32 324.8 2.608 323.936 2.608C323.072 2.608 322.712 2.32 322.712 0.688H318.032C318.032 3.808 319.904 5.296 323.936 5.296C327.968 5.296 329.84 3.808 329.84 0.688H325.184ZM186.072 44V31.544H179.712L174.816 38.168V31.544H169.008V44H175.368L180.264 37.376V44H186.072ZM204.934 44V31.544H199.126V35.72H193.99V31.544H188.182V44H193.99V39.968H199.126V44H204.934ZM222.028 35.792V31.544H206.524V35.792H211.42V44H217.228V35.792H222.028ZM231.593 40.664C229.985 40.664 229.049 40.424 229.049 38.936V38.6H240.017V36.968C240.017 33.008 236.993 31.16 231.593 31.16C226.169 31.16 223.193 32.864 223.193 37.856C223.193 42.752 226.145 44.384 231.593 44.384C236.657 44.384 239.489 43.016 240.017 39.584H234.209C233.945 40.4 233.321 40.664 231.593 40.664ZM234.257 36.008H229.049V35.984C229.049 35.048 229.985 34.76 231.593 34.76C233.249 34.76 234.257 35.048 234.257 35.984V36.008ZM247.505 48.8V42.512C248.585 43.88 250.433 44.384 253.097 44.384C257.009 44.384 259.505 42.632 259.505 37.64C259.505 32.912 256.985 31.16 253.121 31.16C250.337 31.16 248.465 31.736 247.385 33.248V31.544H241.697V48.8H247.505ZM250.529 40.28C248.321 40.28 247.505 39.92 247.505 38.6V36.8C247.577 35.552 248.369 35.264 250.577 35.264C252.761 35.264 253.553 35.576 253.553 36.992V38.6C253.553 39.92 252.761 40.28 250.529 40.28ZM278.068 44V31.544H272.26V35.72H267.124V31.544H261.316V44H267.124V39.968H272.26V44H278.068ZM288.178 40.664C286.57 40.664 285.634 40.424 285.634 38.936V38.6H296.602V36.968C296.602 33.008 293.578 31.16 288.178 31.16C282.754 31.16 279.778 32.864 279.778 37.856C279.778 42.752 282.73 44.384 288.178 44.384C293.242 44.384 296.074 43.016 296.602 39.584H290.794C290.53 40.4 289.906 40.664 288.178 40.664ZM290.842 36.008H285.634V35.984C285.634 35.048 286.57 34.76 288.178 34.76C289.834 34.76 290.842 35.048 290.842 35.984V36.008ZM312.906 35.792V31.544H297.402V35.792H302.298V44H308.106V35.792H312.906Z" fill="#E30611" fill-opacity="0.7"/>
</svg>
