<svg width="343" height="49" fill="none" xmlns="http://www.w3.org/2000/svg"><path fill-rule="evenodd" clip-rule="evenodd" d="M0 29.828C0 37.88 4.5 46 14.578 46c10.068 0 14.577-8.12 14.577-16.172 0-5.5-1.849-11.834-4.935-16.95C21.218 7.939 17.612 5 14.578 5c-3.043 0-6.651 2.938-9.627 7.879C1.851 17.994 0 24.328 0 29.828zM103.495 17.08H93.291V7.198h31.342v9.884h-10.204v26.723h-10.934V17.081zm44.465.001h16.036V7.197h-16.034c-14.735 0-22.601 7.358-22.601 18.304 0 10.946 7.866 18.304 22.601 18.304h16.034V33.92H147.96c-6.817 0-11.301-2.448-11.301-8.419 0-5.972 4.484-8.42 11.301-8.42zM65.232 29.048l5.828-21.85h19.32v36.607H79.447V14.009l-7.948 29.796H58.964L51.02 14.029v29.776H40.088V7.197h19.315l5.829 21.85z" fill="#E30611"/><path d="M168.096 22.36h5.568V19h9.144v3.36h5.568v-7.608h-2.184V6.544h-15.6v4.176c0 1.992-.24 3.336-.696 4.032h-1.8v7.608zm12.408-11.568v3.96h-5.424c.264-.672.576-1.92.576-3.792v-.168h4.848zm17.699 8.592c5.904 0 8.952-1.104 8.952-6.624 0-5.424-3.048-6.6-8.952-6.6s-8.952 1.176-8.952 6.6c0 5.52 3.048 6.624 8.952 6.624zm0-3.864c-2.016 0-3.024-.264-3.024-1.848v-1.776c0-1.752 1.008-1.872 3.024-1.872 2.04 0 3.024.12 3.024 1.872v1.752c0 1.608-.984 1.872-3.024 1.872zm19.173-8.976h-8.52V19h5.112v-8.352l2.784 7.44h5.088l2.784-7.32V19h5.784V6.544h-8.328l-2.376 6.24-2.328-6.24zm14.65 8.808c0 2.616 1.728 4.032 4.968 4.032 3.48 0 5.232-.864 6.144-2.184V19h5.664v-8.088c0-3.312-2.64-4.752-7.872-4.752-5.376 0-7.92 1.464-8.304 4.368h5.976c.192-.48.672-.744 2.328-.744 1.416 0 2.04.12 2.04 1.152v.24l-5.28.144c-3.888.12-5.664 1.56-5.664 4.032zm7.704.312c-1.416 0-1.848-.168-1.848-.816v-.096c0-.504.408-.648 1.2-.672l3.888-.096v.024c0 1.08-1.128 1.656-3.24 1.656zm35.469-9.12h-5.808v8.208h-3.504V6.544h-5.808v8.208h-3.504V6.544h-5.808V19h24.432V6.544zM294.053 19V6.544h-5.808v4.176h-5.136V6.544h-5.808V19h5.808v-4.032h5.136V19h5.808zm19.181 0V6.544h-6.36l-4.896 6.624V6.544h-5.808V19h6.36l4.896-6.624V19h5.808zm19.174 0V6.544h-6.36l-4.896 6.624V6.544h-5.808V19h6.36l4.896-6.624V19h5.808zM325.184.688c0 1.632-.384 1.92-1.248 1.92s-1.224-.288-1.224-1.92h-4.68c0 3.12 1.872 4.608 5.904 4.608s5.904-1.488 5.904-4.608h-4.656zM186.072 44V31.544h-6.36l-4.896 6.624v-6.624h-5.808V44h6.36l4.896-6.624V44h5.808zm18.862 0V31.544h-5.808v4.176h-5.136v-4.176h-5.808V44h5.808v-4.032h5.136V44h5.808zm17.094-8.208v-4.248h-15.504v4.248h4.896V44h5.808v-8.208h4.8zm9.565 4.872c-1.608 0-2.544-.24-2.544-1.728V38.6h10.968v-1.632c0-3.96-3.024-5.808-8.424-5.808-5.424 0-8.4 1.704-8.4 6.696 0 4.896 2.952 6.528 8.4 6.528 5.064 0 7.896-1.368 8.424-4.8h-5.808c-.264.816-.888 1.08-2.616 1.08zm2.664-4.656h-5.208v-.024c0-.936.936-1.224 2.544-1.224 1.656 0 2.664.288 2.664 1.224v.024zM247.505 48.8v-6.288c1.08 1.368 2.928 1.872 5.592 1.872 3.912 0 6.408-1.752 6.408-6.744 0-4.728-2.52-6.48-6.384-6.48-2.784 0-4.656.576-5.736 2.088v-1.704h-5.688V48.8h5.808zm3.024-8.52c-2.208 0-3.024-.36-3.024-1.68v-1.8c.072-1.248.864-1.536 3.072-1.536 2.184 0 2.976.312 2.976 1.728V38.6c0 1.32-.792 1.68-3.024 1.68zM278.068 44V31.544h-5.808v4.176h-5.136v-4.176h-5.808V44h5.808v-4.032h5.136V44h5.808zm10.11-3.336c-1.608 0-2.544-.24-2.544-1.728V38.6h10.968v-1.632c0-3.96-3.024-5.808-8.424-5.808-5.424 0-8.4 1.704-8.4 6.696 0 4.896 2.952 6.528 8.4 6.528 5.064 0 7.896-1.368 8.424-4.8h-5.808c-.264.816-.888 1.08-2.616 1.08zm2.664-4.656h-5.208v-.024c0-.936.936-1.224 2.544-1.224 1.656 0 2.664.288 2.664 1.224v.024zm22.064-.216v-4.248h-15.504v4.248h4.896V44h5.808v-8.208h4.8z" fill="#E30611" fill-opacity=".7"/></svg>